<?xml version="1.0" encoding="UTF-8"?>
<svg version="1.1" xmlns="http://www.w3.org/2000/svg" width="1024" height="1024">
<path d="M0 0 C1.19625 0.165 2.3925 0.33 3.625 0.5 C7 1 7 1 10 3 C12.00660714 3.65733682 14.01381339 4.31288282 16.0234375 4.9609375 C55.34909091 18.68879026 86.96551143 41.51263379 116 71 C116.79921875 71.78375 117.5984375 72.5675 118.421875 73.375 C121.3501704 76.35653713 124.09544297 79.45166341 126.8125 82.625 C127.33658447 83.23674072 127.86066895 83.84848145 128.40063477 84.47875977 C132.89839477 89.78237706 137.0080863 95.30661489 141 101 C141.45761719 101.60972656 141.91523437 102.21945312 142.38671875 102.84765625 C146.17871686 107.90764111 149.04612542 113.42205237 152 119 C153.20674938 121.25084993 154.41510632 123.50083866 155.625 125.75 C156.17414063 126.77609375 156.72328125 127.8021875 157.2890625 128.859375 C158.48855808 131.06118881 159.73951604 133.2353765 161.02734375 135.38671875 C163.17177196 139.12506217 164.57562834 142.98487945 165.9375 147.0625 C166.45636705 148.58356007 166.97590665 150.10439087 167.49609375 151.625 C167.74987793 152.37136719 168.00366211 153.11773437 168.26513672 153.88671875 C169.27928471 156.8031523 170.40039341 159.6773586 171.5 162.5625 C194.53438324 226.98446861 189.40502056 303.0154685 161.06933594 364.79052734 C158.61755464 369.85642248 155.83251518 374.73309951 152.98046875 379.58203125 C151.75134514 381.70329981 150.57350114 383.85628692 149.48046875 386.05078125 C141.8399956 401.27124887 130.37040559 414.4422681 118.9140625 426.8984375 C117.19460749 428.78632892 115.56066622 430.71713245 113.9375 432.6875 C111.22071404 435.90098367 108.14332377 438.53207249 104.9375 441.24609375 C103.09189706 442.91681092 101.56311442 444.62984495 100 446.5625 C96.79510243 450.42722942 93.0659396 453.09674025 89 456 C87.14479712 457.41530941 85.2907224 458.8320983 83.4375 460.25 C60.30095114 477.55160994 35.76352674 489.67628965 8.50390625 499.12890625 C6.33980189 499.88178499 4.18546504 500.65698731 2.03125 501.4375 C-22.27609919 509.74770485 -49.09918687 512.4291558 -74.6875 512.375 C-76.01637741 512.37518127 -76.01637741 512.37518127 -77.37210083 512.37536621 C-99.92099693 512.33191307 -122.1653478 509.80488688 -144 504 C-144.69270996 503.81856445 -145.38541992 503.63712891 -146.09912109 503.45019531 C-157.38911417 500.44470346 -168.20230402 496.43804643 -179 492 C-179.65790527 491.73493652 -180.31581055 491.46987305 -180.99365234 491.19677734 C-189.73947419 487.6571717 -198.0764912 483.4870168 -206.375 479 C-207.27831055 478.51378174 -208.18162109 478.02756348 -209.11230469 477.52661133 C-215.38212217 474.07706129 -221.2068141 470.19445018 -227 466 C-228.05832031 465.25492188 -229.11664063 464.50984375 -230.20703125 463.7421875 C-234.85191158 460.41347266 -239.0057917 457.09931905 -243 453 C-244.5097628 451.81904216 -246.03175967 450.65363737 -247.5625 449.5 C-250.94209611 446.92083455 -253.39105695 444.36637813 -256 441 C-258.02843911 439.20011741 -260.09527179 437.46178738 -262.1953125 435.74609375 C-264.06052306 433.94144197 -264.99263363 432.37302283 -266 430 C-266.66 430 -267.32 430 -268 430 C-269.55078125 428.4609375 -269.55078125 428.4609375 -271.3125 426.375 C-271.88613281 425.70210937 -272.45976562 425.02921875 -273.05078125 424.3359375 C-273.69402344 423.56507813 -274.33726562 422.79421875 -275 422 C-275.79664063 421.04738281 -276.59328125 420.09476563 -277.4140625 419.11328125 C-291.10963437 402.64021317 -302.44620064 385.19131218 -312 366 C-312.68449219 364.63101563 -312.68449219 364.63101563 -313.3828125 363.234375 C-330.13706091 327.95059358 -337.22153558 289.61744506 -337.25 250.75 C-337.25067474 249.91473785 -337.25134949 249.07947571 -337.25204468 248.21890259 C-337.2338484 233.95625395 -336.38228886 220.08318328 -334 206 C-333.75854248 204.49735596 -333.75854248 204.49735596 -333.51220703 202.96435547 C-330.7338625 186.05675453 -325.87616214 170.07507532 -320 154 C-319.39671875 152.34532715 -319.39671875 152.34532715 -318.78125 150.65722656 C-316.26551074 143.92565861 -313.43835788 137.55723774 -310 131.25 C-309.5875 130.47785156 -309.175 129.70570313 -308.75 128.91015625 C-307.51179898 126.60013747 -306.25870157 124.29890414 -305 122 C-304.58242432 121.23268555 -304.16484863 120.46537109 -303.73461914 119.67480469 C-301.12703209 114.92273078 -298.38556438 110.29814819 -295.4375 105.75 C-295.06431641 105.16476562 -294.69113281 104.57953125 -294.30664062 103.9765625 C-292.05153319 100.47820452 -289.62338546 97.22718053 -287 94 C-285.67930695 92.17255992 -284.36691433 90.33909505 -283.0625 88.5 C-280.27460793 84.64735948 -277.45569132 81.27847638 -274 78 C-272.16319712 75.87444208 -270.34960148 73.73200532 -268.55078125 71.57421875 C-268.03902344 71.05472656 -267.52726562 70.53523438 -267 70 C-266.34 70 -265.68 70 -265 70 C-265 69.34 -265 68.68 -265 68 C-263.38025441 66.28769752 -261.7041054 64.62836738 -260 63 C-259.195625 62.175 -258.39125 61.35 -257.5625 60.5 C-254.82885463 57.83302891 -251.93809595 55.43799451 -249 53 C-248.36449219 52.35804688 -247.72898437 51.71609375 -247.07421875 51.0546875 C-240.82072248 44.86007538 -233.25119106 39.9426486 -226 35 C-225.41879395 34.60345215 -224.83758789 34.2069043 -224.23876953 33.79833984 C-208.04321548 22.77967604 -191.17942378 14.3076352 -173 7 C-171.7248309 6.45151835 -170.45012155 5.90196705 -169.17578125 5.3515625 C-120.6713864 -15.11352195 -49.81292294 -20.17147348 0 0 Z " fill="#040404" transform="translate(588,261)"/>
<path d="M0 0 C7.00680377 -0.0511954 14.01355836 -0.08593898 21.02050781 -0.10986328 C23.39845584 -0.11984925 25.77639181 -0.13344269 28.15429688 -0.15087891 C70.57785825 -0.45390434 70.57785825 -0.45390434 85 11 C92.61379398 19.02535042 93.19483474 27.4492042 93.25 37.9375 C93.270625 38.91396484 93.29125 39.89042969 93.3125 40.89648438 C93.34213952 46.36127118 93.13044645 50.30803062 90 55 C85.68912981 59.31087019 81.7683629 61.11036388 76 63 C76.6290625 63.21914063 77.258125 63.43828125 77.90625 63.6640625 C83.76814581 65.83578896 89.82288871 68.17654585 94 73 C96.63847001 79.02736147 97.64810037 84.48571656 98.203125 91.01171875 C98.29003601 91.94297073 98.37694702 92.87422272 98.4664917 93.83369446 C98.64644255 95.7887893 98.82094401 97.7443927 98.99023438 99.70043945 C99.25025405 102.69042137 99.53005925 105.67807694 99.8125 108.66601562 C99.98554571 110.57281078 100.15746009 112.47970903 100.328125 114.38671875 C100.41137024 115.2763884 100.49461548 116.16605804 100.5803833 117.08268738 C101.24536772 124.95859063 101.24536772 124.95859063 100 129 C97.3465437 131.6534563 89.7717724 130.22998461 85.95458984 130.24023438 C83.7727182 130.24989937 81.59180491 130.28088906 79.41015625 130.3125 C78.01823476 130.31903409 76.62630653 130.32428297 75.234375 130.328125 C73.96819336 130.3374707 72.70201172 130.34681641 71.39746094 130.35644531 C67.66762015 129.9651283 65.80079483 129.49945583 63 127 C62.26464844 124.12768555 62.26464844 124.12768555 62.109375 120.63671875 C62.03976562 119.35603516 61.97015625 118.07535156 61.8984375 116.75585938 C61.84821789 115.3997668 61.79874134 114.04364651 61.75 112.6875 C61.62004925 110.06639347 61.48984194 107.44529964 61.359375 104.82421875 C61.30160889 103.52887207 61.24384277 102.23352539 61.18432617 100.89892578 C61.00215024 97.04548258 60.78610547 93.19722237 60.53515625 89.34765625 C60.46433838 88.25074463 60.39352051 87.15383301 60.32055664 86.02368164 C59.88153549 81.88257204 59.18096335 77.60406299 57 74 C53.65627483 71.65077857 49.97075105 71.53062806 46 71 C46.0501123 71.55408539 46.10022461 72.10817078 46.15185547 72.67904663 C46.67624077 78.48689621 47.19436496 84.29528103 47.70898438 90.10400391 C47.90141449 92.2669055 48.09539884 94.42966944 48.29101562 96.59228516 C48.57318043 99.71481299 48.8496069 102.83780601 49.125 105.9609375 C49.21249512 106.91551849 49.29999023 107.87009949 49.39013672 108.85360718 C49.91800002 114.91905656 50.10406868 120.9124982 50 127 C47.58239124 126.88573491 45.16652782 126.75900339 42.75 126.625 C42.06808594 126.5940625 41.38617188 126.563125 40.68359375 126.53125 C35.43118352 126.22528436 35.43118352 126.22528436 33.07763672 124.99560547 C30.61178219 123.81396566 28.81127244 123.71645546 26.0859375 123.65625 C24.69761719 123.61177734 24.69761719 123.61177734 23.28125 123.56640625 C21.33594157 123.521957 19.39062902 123.47768759 17.4453125 123.43359375 C16.06085938 123.38912109 16.06085938 123.38912109 14.6484375 123.34375 C13.38265869 123.31571289 13.38265869 123.31571289 12.09130859 123.28710938 C10 123 10 123 8 121 C7.63696289 118.59033203 7.63696289 118.59033203 7.47265625 115.5078125 C7.40433594 114.34685059 7.33601563 113.18588867 7.265625 111.98974609 C7.19859375 110.71437988 7.1315625 109.43901367 7.0625 108.125 C6.90287921 105.36943661 6.73522521 102.61438863 6.56640625 99.859375 C6.5228299 99.13813446 6.47925354 98.41689392 6.43435669 97.67379761 C5.97882835 90.30913533 5.34165436 82.96292781 4.69619751 75.61291504 C3.389096 60.70354063 2.39724328 45.79682901 1.64648438 30.84912109 C1.57447191 29.42804704 1.50221419 28.0069854 1.4296875 26.5859375 C1.39546692 25.91178802 1.36124634 25.23763855 1.32598877 24.5430603 C1.09308528 20.17097528 0.7336989 15.83466199 0.18798828 11.49072266 C-0.10092117 7.66285997 -0.03320185 3.83685287 0 0 Z " fill="#E87C2C" transform="translate(345,447)"/>
<path d="M0 0 C10.89 0 21.78 0 33 0 C41.33333333 16.66666667 49.66666667 33.33333333 58 50 C58.01361291 47.79168406 58.02324876 45.58334341 58.03125 43.375 C58.03705078 42.14523437 58.04285156 40.91546875 58.04882812 39.6484375 C58.00536605 36.4009511 57.81347413 33.23077341 57.5 30 C56.64781699 20.36193016 56.91540089 10.66642494 57 1 C61.39656173 0.97534496 65.7930872 0.95716158 70.18969727 0.94506836 C71.68644918 0.94002879 73.18319616 0.93319713 74.67993164 0.92456055 C76.82699807 0.91247841 78.97399962 0.90676809 81.12109375 0.90234375 C83.06133423 0.89448853 83.06133423 0.89448853 85.04077148 0.88647461 C88 1 88 1 89 2 C89.26385333 4.31140907 89.46691193 6.60200322 89.63256836 8.92114258 C89.68802322 9.64684448 89.74347809 10.37254639 89.8006134 11.12023926 C89.98475082 13.54469392 90.162306 15.96958506 90.33984375 18.39453125 C90.4677597 20.09725289 90.59606716 21.79994515 90.7247467 23.50260925 C91.06507598 28.02076864 91.39979588 32.53932755 91.73345947 37.0579834 C92.06552907 41.54087328 92.40318448 46.02334172 92.74023438 50.50585938 C93.44470365 59.89065811 94.13905723 69.27618192 94.82820892 78.662117 C94.99452358 80.92547207 95.16140858 83.18878441 95.32843018 85.4520874 C95.61865338 89.38844564 95.90544117 93.32504872 96.19140625 97.26171875 C96.27502914 98.39680374 96.35865204 99.53188873 96.44480896 100.70137024 C96.51917679 101.7353746 96.59354462 102.76937897 96.67016602 103.8347168 C96.73446304 104.71943161 96.79876007 105.60414642 96.86500549 106.51567078 C97.00085632 109.0157591 97.02370208 111.49675476 97 114 C96.26394531 114.06058594 95.52789063 114.12117187 94.76953125 114.18359375 C93.30580078 114.30927734 93.30580078 114.30927734 91.8125 114.4375 C90.84957031 114.51871094 89.88664063 114.59992188 88.89453125 114.68359375 C86.01455209 114.93366915 86.01455209 114.93366915 83.32421875 115.66015625 C81 116 81 116 78 114 C75.23344676 113.85754103 72.57346694 113.81230555 69.8125 113.875 C69.06291016 113.88402344 68.31332031 113.89304687 67.54101562 113.90234375 C65.69387346 113.92587422 63.84689588 113.96174439 62 114 C61.18702799 112.37405599 60.37408763 110.74809615 59.5612793 109.12207031 C58.84711785 107.69407599 58.13242719 106.26634622 57.41723633 104.83886719 C55.53012426 101.07042034 53.65178083 97.29812045 51.79296875 93.515625 C51.43976562 92.80019531 51.0865625 92.08476563 50.72265625 91.34765625 C50.04619947 89.97687402 49.37288326 88.60453628 48.703125 87.23046875 C47.04725411 83.88437281 45.23405202 80.97458737 43 78 C42.23868658 76.31460961 41.53057274 74.60426668 40.875 72.875 C39.55001458 69.38784532 39.55001458 69.38784532 38 66 C37.85801531 75.36408738 38.28600625 84.60251418 39 93.9375 C39.18938368 96.46730761 39.3769511 98.99725199 39.5625 101.52734375 C39.64628906 102.62812256 39.73007812 103.72890137 39.81640625 104.86303711 C39.9943875 107.90410238 40 110.95373092 40 114 C31.09 114 22.18 114 13 114 C12.67 114.99 12.34 115.98 12 117 C11.01 117 10.02 117 9 117 C7.05276625 111.95189792 6.45535017 107.22415954 6 101.88671875 C5.9193782 101.00818237 5.83875641 100.129646 5.75569153 99.2244873 C5.49657242 96.37942243 5.24793621 93.53355942 5 90.6875 C4.82425038 88.7236749 4.64806046 86.75988915 4.47143555 84.79614258 C4.04530467 80.03289689 3.6285691 75.26889604 3.21673584 70.50439453 C3.02593227 68.2996488 2.83310775 66.09509588 2.63916016 63.890625 C0.77686671 42.57343452 -0.14656972 21.39917914 0 0 Z " fill="#35974A" transform="translate(512,449)"/>
<path d="M0 0 C5.23273331 -0.04935824 10.46533176 -0.08569949 15.69824219 -0.10986328 C17.47919067 -0.11993431 19.26012257 -0.13359185 21.04101562 -0.15087891 C23.59769783 -0.17507913 26.15416185 -0.18647184 28.7109375 -0.1953125 C29.90944839 -0.21079636 29.90944839 -0.21079636 31.13217163 -0.22659302 C33.0895722 -0.22699226 35.04643077 -0.12241069 37 0 C39.97201001 2.97201001 39.50327402 6.34636447 39.7109375 10.3515625 C39.76389481 11.21835129 39.81685211 12.08514008 39.87141418 12.97819519 C39.98638424 14.86761117 40.09737971 16.75727214 40.20492554 18.64712524 C40.49467836 23.72047728 40.81551101 28.79183762 41.13671875 33.86328125 C41.23678978 35.45377541 41.23678978 35.45377541 41.33888245 37.07640076 C42.12509227 49.33507688 43.14666315 61.57323111 44.1875 73.8125 C44.32330475 75.41523773 44.32330475 75.41523773 44.46185303 77.050354 C44.96939775 83.03402092 45.48214881 89.01721654 46 95 C46.99181274 95.03758423 46.99181274 95.03758423 48.00366211 95.07592773 C50.98182305 95.19153102 53.9596392 95.31441754 56.9375 95.4375 C57.97841797 95.47681641 59.01933594 95.51613281 60.09179688 95.55664062 C61.08115234 95.59853516 62.07050781 95.64042969 63.08984375 95.68359375 C64.00628662 95.72025146 64.92272949 95.75690918 65.86694336 95.79467773 C68 96 68 96 69 97 C69.37966905 100.31896119 69.46961593 103.6638126 69.625 107 C69.70234375 108.41152344 69.70234375 108.41152344 69.78125 109.8515625 C69.82507813 110.74617187 69.86890625 111.64078125 69.9140625 112.5625 C69.9548291 113.38878906 69.9955957 114.21507812 70.03759766 115.06640625 C70 117 70 117 69 118 C24.63592868 123.09714862 24.63592868 123.09714862 8 117 C6.79168226 114.58336452 6.74578208 112.79884372 6.56689453 110.09936523 C6.49646942 109.06920792 6.42604431 108.0390506 6.35348511 106.97767639 C6.28066315 105.84937912 6.20784119 104.72108185 6.1328125 103.55859375 C6.01379074 101.79708229 6.01379074 101.79708229 5.8923645 99.99998474 C5.63265688 96.14607478 5.37876725 92.2918053 5.125 88.4375 C4.81461681 83.79284233 4.50239283 79.14830976 4.18936157 74.50382996 C4.09935637 73.16724347 4.00953386 71.83064467 3.91989136 70.49403381 C3.34046136 61.85629319 2.73128116 53.22172656 2.0703125 44.58984375 C1.99954498 43.65943771 1.92877747 42.72903168 1.85586548 41.77043152 C1.59284247 38.32038275 1.32960684 34.87040734 1.05377197 31.4213562 C0.2143621 20.92145236 -0.16120602 10.53391756 0 0 Z " fill="#E87D2D" transform="translate(619,450)"/>
<path d="M0 0 C5.51756476 -0.0493521 11.03500171 -0.08569662 16.55273438 -0.10986328 C18.43068682 -0.11993534 20.30862353 -0.13359362 22.18652344 -0.15087891 C24.8822009 -0.17507453 27.57767146 -0.18647083 30.2734375 -0.1953125 C31.11619232 -0.20563507 31.95894714 -0.21595764 32.82723999 -0.22659302 C34.88621247 -0.22699144 36.94467935 -0.12257588 39 0 C41.31667181 2.31667181 41.29112906 2.84989716 41.5062561 5.99169922 C41.59872871 7.24416946 41.59872871 7.24416946 41.69306946 8.52194214 C41.75133408 9.44024811 41.80959869 10.35855408 41.86962891 11.3046875 C41.93819595 12.27093048 42.006763 13.23717346 42.07740784 14.23269653 C42.3029665 17.44623565 42.51502056 20.66050997 42.7265625 23.875 C42.88001298 26.11592884 43.03410557 28.35681379 43.18881226 30.59765625 C43.51224653 35.31180016 43.82927161 40.02631859 44.14160156 44.74121094 C44.53911556 50.73749227 44.94999774 56.7327595 45.36556435 62.72781372 C45.68601205 67.36739773 46.00024437 72.00738696 46.312603 76.64752197 C46.46168149 78.85446118 46.61235804 81.06129311 46.76475906 83.26800537 C47.4783456 93.65692554 48.12601187 104.02077263 48.15380859 114.4375 C48.15669199 115.19562988 48.15957539 115.95375977 48.16254616 116.73486328 C48.12903873 121.87096127 48.12903873 121.87096127 47 123 C45.865625 123.103125 44.73125 123.20625 43.5625 123.3125 C40.15727485 123.67094475 37.74006786 124.54157145 34.6875 126.0625 C27.03543258 129.3832085 18.16595614 128.49862195 10 128 C8.04615965 126.04615965 8.56129665 122.37054386 8.38671875 119.69140625 C8.30529633 118.53245094 8.30529633 118.53245094 8.222229 117.3500824 C8.10328546 115.65336008 7.98632842 113.95649766 7.87106323 112.25952148 C7.55468339 107.61107845 7.22226069 102.96378188 6.890625 98.31640625 C6.82040634 97.32855133 6.75018768 96.34069641 6.67784119 95.32290649 C5.83444152 83.54306574 4.88767073 71.77162827 3.9375 60 C3.85559418 58.98342316 3.77368835 57.96684631 3.68930054 56.91946411 C3.52777961 54.91497135 3.36611392 52.91049024 3.20429993 50.90602112 C3.04542993 48.93652107 2.88696848 46.96698802 2.72892761 44.99742126 C2.30889897 39.77328291 1.8783004 34.5502658 1.43408203 29.328125 C1.34131485 28.21832275 1.24854767 27.10852051 1.15296936 25.96508789 C0.9764951 23.85458891 0.79661809 21.74437029 0.61253357 19.63452148 C0.06910134 13.07418444 -0.1019222 6.58180839 0 0 Z " fill="#E77B2C" transform="translate(453,448)"/>
<path d="M0 0 C4.65464689 0.11154927 8.05983549 0.3918008 12.03125 2.9609375 C14.79628772 7.22919017 14.66591607 10.64751799 14.5 15.625 C14.50257813 16.48351562 14.50515625 17.34203125 14.5078125 18.2265625 C14.40998592 24.48746351 14.40998592 24.48746351 12.61206055 26.73510742 C10.5025665 28.39030789 8.96548655 28.4952546 6.3125 28.6875 C5.10013672 28.78611328 5.10013672 28.78611328 3.86328125 28.88671875 C2.94095703 28.94279297 2.94095703 28.94279297 2 29 C0.78174143 23.0827441 0.66352622 17.14248484 0.4375 11.125 C0.39431641 10.05507813 0.35113281 8.98515625 0.30664062 7.8828125 C0.20107183 5.25532246 0.09896209 2.62774578 0 0 Z " fill="#040001" transform="translate(387,469)"/>
<path d="M0 0 C0.33 0 0.66 0 1 0 C2.74155138 11.76473537 3.58581045 23.54105512 4.30224609 35.40893555 C4.37910645 36.63394775 4.4559668 37.85895996 4.53515625 39.12109375 C4.600979 40.2289624 4.66680176 41.33683105 4.73461914 42.47827148 C4.72583883 44.9355781 4.72583883 44.9355781 6 46 C6.13373284 47.38660829 6.20353092 48.77948302 6.24609375 50.171875 C6.27767578 51.05439941 6.30925781 51.93692383 6.34179688 52.84619141 C6.37337891 53.80444824 6.40496094 54.76270508 6.4375 55.75 C6.74803521 63.73312331 7.23658332 71.67198202 8 79.625 C8.08306396 80.50639648 8.16612793 81.38779297 8.25170898 82.29589844 C8.61678259 85.96171132 9.03817766 89.43624785 10 93 C10.74048584 93.01981934 11.48097168 93.03963867 12.24389648 93.06005859 C15.64208411 93.15609606 19.0397221 93.26545316 22.4375 93.375 C23.60216797 93.4059375 24.76683594 93.436875 25.96679688 93.46875 C32.57460923 93.69211267 38.60221961 94.31673372 45 96 C44.89171875 94.86304688 44.89171875 94.86304688 44.78125 93.703125 C43.67762963 80.15311937 43.90756447 66.58517907 44 53 C44.33 53 44.66 53 45 53 C45.4327287 57.94338827 45.85974419 62.88722674 46.28173828 67.83154297 C46.42572102 69.50940891 46.5711963 71.18714754 46.71826172 72.86474609 C47.48264434 81.59534756 48.21442731 90.22634934 48 99 C45.58239124 98.88573491 43.16652782 98.75900339 40.75 98.625 C40.06808594 98.5940625 39.38617188 98.563125 38.68359375 98.53125 C33.43118352 98.22528436 33.43118352 98.22528436 31.07763672 96.99560547 C28.61178219 95.81396566 26.81127244 95.71645546 24.0859375 95.65625 C22.69761719 95.61177734 22.69761719 95.61177734 21.28125 95.56640625 C19.33594157 95.521957 17.39062902 95.47768759 15.4453125 95.43359375 C14.52234375 95.40394531 13.599375 95.37429688 12.6484375 95.34375 C11.38265869 95.31571289 11.38265869 95.31571289 10.09130859 95.28710938 C8 95 8 95 6 93 C5.63696289 90.59033203 5.63696289 90.59033203 5.47265625 87.5078125 C5.40425537 86.34612549 5.33585449 85.18443848 5.26538086 83.98754883 C5.16495483 82.07558716 5.16495483 82.07558716 5.0625 80.125 C4.90422301 77.3811532 4.73798068 74.63781868 4.5703125 71.89453125 C4.5269426 71.17514877 4.48357269 70.4557663 4.43888855 69.71458435 C3.97160925 62.16329478 3.30497046 54.63185339 2.63879395 47.0960083 C1.25505972 31.39872245 0.36511701 15.75853092 0 0 Z " fill="#C57840" transform="translate(347,475)"/>
<path d="M0 0 C7.00680377 -0.0511954 14.01355836 -0.08593898 21.02050781 -0.10986328 C23.39845584 -0.11984925 25.77639181 -0.13344269 28.15429688 -0.15087891 C70.57785825 -0.45390434 70.57785825 -0.45390434 85 11 C92.61379398 19.02535042 93.19483474 27.4492042 93.25 37.9375 C93.270625 38.91396484 93.29125 39.89042969 93.3125 40.89648438 C93.35116045 48.02450534 92.44612383 52.43739408 87.375 57.75 C83.69192149 60.64251873 79.54517119 61.32327451 75 62 C75.495 61.01 75.495 61.01 76 60 C77.32 60 78.64 60 80 60 C80 59.34 80 58.68 80 58 C80.99 58 81.98 58 83 58 C83 57.34 83 56.68 83 56 C83.969375 55.360625 84.93875 54.72125 85.9375 54.0625 C89.24255225 52.28938993 89.24255225 52.28938993 90 49 C90.09170351 47.60126195 90.13066353 46.19861429 90.1328125 44.796875 C90.13410156 43.98089844 90.13539063 43.16492188 90.13671875 42.32421875 C90.13285156 41.47472656 90.12898438 40.62523437 90.125 39.75 C90.12886719 38.91597656 90.13273437 38.08195312 90.13671875 37.22265625 C90.12641588 30.65972722 89.36278967 24.42457985 88 18 C87.34 18 86.68 18 86 18 C86 16.68 86 15.36 86 14 C85.01 14.33 84.02 14.66 83 15 C82.61972656 14.23042969 82.23945313 13.46085937 81.84765625 12.66796875 C77.87354557 6.92945375 69.5244109 5.17505284 62.9375 3.75 C54.03294895 2.29855682 45.09090997 1.84591545 36.08203125 1.68359375 C35.09877365 1.66281265 34.11551605 1.64203156 33.10246277 1.62062073 C30.00586959 1.55598859 26.90920228 1.49664805 23.8125 1.4375 C21.69465423 1.39423236 19.57681557 1.35061566 17.45898438 1.30664062 C12.30606274 1.20039774 7.15306766 1.09889565 2 1 C2 6.94 2 12.88 2 19 C1.67 19 1.34 19 1 19 C0.82715323 17.52154276 0.6621554 16.04216801 0.5 14.5625 C0.4071875 13.73878906 0.314375 12.91507812 0.21875 12.06640625 C0.03275408 9.45914197 -0.02195838 6.91963479 -0.01367188 4.30834961 C-0.011698 3.50070663 -0.00972412 2.69306366 -0.00769043 1.86094666 C-0.00515259 1.24683426 -0.00261475 0.63272186 0 0 Z " fill="#C27741" transform="translate(345,447)"/>
<path d="M0 0 C5.53588533 -0.02464775 11.071739 -0.04283496 16.60766602 -0.05493164 C18.4924373 -0.05997244 20.37720465 -0.06680498 22.26196289 -0.07543945 C24.96501636 -0.08751617 27.66801831 -0.09323068 30.37109375 -0.09765625 C31.21900986 -0.10281754 32.06692596 -0.10797882 32.9405365 -0.11329651 C34.96071068 -0.11349195 36.98077934 -0.06206211 39 0 C40 1 40 1 40.09765625 3.28515625 C40.08605469 4.20167969 40.07445312 5.11820312 40.0625 6.0625 C40.05347656 6.98160156 40.04445313 7.90070313 40.03515625 8.84765625 C40.02355469 9.55792969 40.01195312 10.26820313 40 11 C39.67 11 39.34 11 39 11 C38.505 7.04 38.505 7.04 38 3 C26.12 2.67 14.24 2.34 2 2 C2.33 3.98 2.66 5.96 3 8 C3.15119007 9.67772898 3.27571411 11.35808171 3.37304688 13.03979492 C3.42980591 13.99065475 3.48656494 14.94151459 3.54504395 15.92118835 C3.60236694 16.93075089 3.65968994 17.94031342 3.71875 18.98046875 C3.84762457 21.13476752 3.97653179 23.28906434 4.10546875 25.44335938 C4.30410505 28.82732351 4.50138467 32.21136255 4.69775391 35.59545898 C4.88887204 38.86983904 5.08485165 42.14390183 5.28125 45.41796875 C5.338573 46.43360397 5.395896 47.4492392 5.45495605 48.49565125 C5.51171509 49.4370546 5.56847412 50.37845795 5.62695312 51.34838867 C5.67501099 52.17634445 5.72306885 53.00430023 5.77258301 53.85734558 C5.94206507 56.18341616 5.94206507 56.18341616 7 59 C7.08315752 61.06498892 7.10735878 63.1325789 7.09765625 65.19921875 C7.09443359 66.40771484 7.09121094 67.61621094 7.08789062 68.86132812 C7.07951172 70.12396484 7.07113281 71.38660156 7.0625 72.6875 C7.05798828 73.96173828 7.05347656 75.23597656 7.04882812 76.54882812 C7.03702873 79.69926564 7.02056597 82.84960949 7 86 C6.67 86 6.34 86 6 86 C5.19921875 75.99023438 4.3984375 65.98046875 3.59765625 55.97070312 C3.51070496 54.88469818 3.42375366 53.79869324 3.33416748 52.67977905 C3.15753271 50.47004661 2.98147131 48.26026825 2.80596924 46.05044556 C2.35767468 40.41507332 1.89912795 34.78086574 1.42089844 29.14794922 C1.3279953 28.03628891 1.23509216 26.9246286 1.13937378 25.77928162 C0.96429632 23.68754861 0.78580316 21.5960972 0.60305786 19.50502014 C0.0623822 12.98830916 -0.09961389 6.53807172 0 0 Z " fill="#C3763F" transform="translate(453,448)"/>
<path d="M0 0 C0.33 0 0.66 0 1 0 C1.06041977 0.8024263 1.12083954 1.6048526 1.18309021 2.43159485 C1.75586239 10.03648072 2.32945574 17.64130403 2.90394497 25.24606037 C3.19918461 29.15464816 3.49411952 33.06325843 3.78833008 36.97192383 C4.07288219 40.75211812 4.35827122 44.53224843 4.64421272 48.31233788 C4.75253462 49.74621574 4.86056749 51.18011547 4.96829033 52.61403847 C5.57966354 60.74936717 6.23705838 68.87727619 7 77 C14.26 77.33 21.52 77.66 29 78 C29 78.33 29 78.66 29 79 C25.20834926 79.0289337 21.41672673 79.04677601 17.625 79.0625 C16.54476562 79.07087891 15.46453125 79.07925781 14.3515625 79.08789062 C13.3203125 79.09111328 12.2890625 79.09433594 11.2265625 79.09765625 C10.27346191 79.10289307 9.32036133 79.10812988 8.33837891 79.11352539 C6 79 6 79 4 78 C2.21972546 70.29107532 2.89821493 61.84876 3 54 C2.34 54 1.68 54 1 54 C-0.05575078 47.9833165 -0.12939265 42.13452091 -0.09765625 36.03515625 C-0.0962413 35.00184677 -0.09482635 33.96853729 -0.09336853 32.90391541 C-0.08779839 29.6234134 -0.07525141 26.34298117 -0.0625 23.0625 C-0.05748114 20.83007911 -0.05291891 18.59765715 -0.04882812 16.36523438 C-0.03783875 10.91013269 -0.0211305 5.45507133 0 0 Z " fill="#C4763D" transform="translate(658,468)"/>
<path d="M0 0 C0.33 0 0.66 0 1 0 C1.06731323 1.20269531 1.06731323 1.20269531 1.13598633 2.4296875 C2.05494636 18.57958033 3.17521165 34.67814536 4.76229858 50.77664185 C5.64482741 59.75649882 6.37754643 68.70963192 6.70922852 77.72753906 C6.90035227 82.85924115 7.387019 87.90019908 8 93 C8.74765625 92.97679687 9.4953125 92.95359375 10.265625 92.9296875 C11.25046875 92.91164063 12.2353125 92.89359375 13.25 92.875 C14.22453125 92.85179687 15.1990625 92.82859375 16.203125 92.8046875 C19 93 19 93 23 95 C17.39 95 11.78 95 6 95 C4.75806746 92.51613491 4.73389926 90.60599429 4.55102539 87.82958984 C4.4774733 86.74600189 4.4039212 85.66241394 4.32814026 84.54598999 C4.25208054 83.36292267 4.17602081 82.17985535 4.09765625 80.9609375 C4.01503036 79.73331696 3.93240448 78.50569641 3.84727478 77.24087524 C3.62641088 73.95243404 3.40904081 70.66380247 3.19366455 67.375 C2.81295607 61.56994862 2.42464914 55.76540498 2.03515625 49.9609375 C1.95101471 48.69940857 1.86687317 47.43787964 1.78018188 46.13812256 C1.15989421 36.9795532 0.43817606 27.83283633 -0.39378357 18.69100952 C-1.61760564 4.85281693 -1.61760564 4.85281693 0 0 Z " fill="#C67942" transform="translate(621,472)"/>
<path d="M0 0 C0.33 0 0.66 0 1 0 C1.65977014 8.64770146 2.10402465 17.26244581 2.125 25.9375 C2.12951172 26.72431152 2.13402344 27.51112305 2.13867188 28.32177734 C2.12391613 33.87608387 2.12391613 33.87608387 1 35 C-0.7015625 35.1546875 -0.7015625 35.1546875 -2.4375 35.3125 C-5.84272515 35.67094475 -8.25993214 36.54157145 -11.3125 38.0625 C-18.96456742 41.3832085 -27.83404386 40.49862195 -36 40 C-37.75379406 38.24620594 -37.35843052 35.73753184 -37.53515625 33.34765625 C-37.66567383 31.59291992 -37.66567383 31.59291992 -37.79882812 29.80273438 C-37.9293457 27.95131836 -37.9293457 27.95131836 -38.0625 26.0625 C-38.15337891 24.86302734 -38.24425781 23.66355469 -38.33789062 22.42773438 C-38.83296066 15.60470155 -39.13316663 8.84081934 -39 2 C-38.67 2 -38.34 2 -38 2 C-35.89785275 13.95978923 -35.40481886 25.88505519 -35 38 C-32.16532658 37.91217358 -29.33346584 37.80519098 -26.5 37.6875 C-25.31277344 37.65366211 -25.31277344 37.65366211 -24.1015625 37.61914062 C-20.0869768 37.4381552 -16.70519913 37.0439506 -12.96875 35.51953125 C-9 34 -9 34 0 33 C0 22.11 0 11.22 0 0 Z " fill="#C1743D" transform="translate(499,536)"/>
<path d="M0 0 C6.28050874 -0.02543977 12.56100409 -0.04290455 18.84155273 -0.05493164 C20.97632341 -0.05994778 23.11109067 -0.06676224 25.24584961 -0.07543945 C28.32146042 -0.08762435 31.39702563 -0.09325562 34.47265625 -0.09765625 C35.42084732 -0.10281754 36.36903839 -0.10797882 37.34596252 -0.11329651 C42.34312118 -0.1137157 47.07453858 0.14404188 52 1 C52 1.33 52 1.66 52 2 C51.04287109 2.09087891 51.04287109 2.09087891 50.06640625 2.18359375 C49.24011719 2.26738281 48.41382813 2.35117187 47.5625 2.4375 C46.73878906 2.51871094 45.91507813 2.59992187 45.06640625 2.68359375 C43.01337975 2.78930815 43.01337975 2.78930815 42 4 C38.97022196 4.08871273 35.96332978 4.1151935 32.93359375 4.09765625 C32.02497086 4.0962413 31.11634796 4.09482635 30.18019104 4.09336853 C27.26592779 4.08775193 24.35174019 4.07519665 21.4375 4.0625 C19.46679798 4.05748714 17.49609476 4.05292386 15.52539062 4.04882812 C10.68356441 4.03777711 5.84179505 4.02050138 1 4 C0.67 2.68 0.34 1.36 0 0 Z " fill="#0C0C0C" transform="translate(491,769)"/>
<path d="M0 0 C0.33 0 0.66 0 1 0 C2.04926327 6.46171295 2.34036414 12.87777175 2.60546875 19.41210938 C2.64285156 20.23130859 2.68023438 21.05050781 2.71875 21.89453125 C2.74904297 22.63550049 2.77933594 23.37646973 2.81054688 24.13989258 C2.89840065 26.09203694 2.89840065 26.09203694 4 28 C4.0609249 29.64733646 4.06016517 31.29717658 4.02734375 32.9453125 C4.01509766 33.94046875 4.00285156 34.935625 3.99023438 35.9609375 C3.95546748 38.04695102 3.9165021 40.13289939 3.87304688 42.21875 C3.80113037 48.7605159 3.80113037 48.7605159 5.02734375 55.1484375 C6.203813 59.80706675 6.01151991 63.75353549 5.625 68.5 C5.56828125 69.32242188 5.5115625 70.14484375 5.453125 70.9921875 C5.31335136 72.99560966 5.15828133 74.99795503 5 77 C4.67 77 4.34 77 4 77 C-0.83978902 23.71757995 -0.83978902 23.71757995 0 0 Z " fill="#3A7F47" transform="translate(513,464)"/>
<path d="M0 0 C0.66 0 1.32 0 2 0 C2.06058594 1.31613281 2.12117188 2.63226563 2.18359375 3.98828125 C2.26810544 5.76302673 2.35274791 7.53776598 2.4375 9.3125 C2.47681641 10.17423828 2.51613281 11.03597656 2.55664062 11.92382812 C2.77404877 16.42250439 3.06695851 20.89593596 3.50390625 25.37890625 C4.18293889 32.52678482 4.37154763 39.68579402 4.60546875 46.859375 C4.76939379 51.4605812 4.95335062 56.01194777 5.52734375 60.58203125 C6.15806123 65.74244701 6.1094693 70.87058627 6.0625 76.0625 C6.05798828 77.02349609 6.05347656 77.98449219 6.04882812 78.97460938 C6.03717706 81.31647422 6.02082025 83.65820181 6 86 C5.67 86 5.34 86 5 86 C4.34223011 76.85456622 3.68990133 67.70876443 3.04424286 58.56246758 C2.74417319 54.31407796 2.44233133 50.06583075 2.13623047 45.81787109 C1.84010173 41.70734325 1.54890093 37.59649161 1.26091003 33.48538589 C1.15099862 31.92824312 1.03940386 30.37121808 0.92597961 28.81432724 C0.22577258 19.18458714 -0.15096955 9.66121226 0 0 Z " fill="#260A01" transform="translate(495,466)"/>
<path d="M0 0 C0.33 0 0.66 0 1 0 C1.19592461 3.31205884 1.38032746 6.62465854 1.5625 9.9375 C1.64661133 11.35579102 1.64661133 11.35579102 1.73242188 12.80273438 C1.78076172 13.70185547 1.82910156 14.60097656 1.87890625 15.52734375 C1.9260376 16.35999756 1.97316895 17.19265137 2.02172852 18.05053711 C2 20 2 20 1 21 C-8.56397081 22.0988392 -18.26004807 22.1235297 -27.875 22.1875 C-29.47130249 22.20695679 -29.47130249 22.20695679 -31.09985352 22.22680664 C-32.59343384 22.22861938 -32.59343384 22.22861938 -34.1171875 22.23046875 C-35.01034668 22.23457764 -35.90350586 22.23868652 -36.82373047 22.24291992 C-39 22 -39 22 -41 20 C-40.29915283 19.97494385 -39.59830566 19.9498877 -38.8762207 19.92407227 C-35.68814512 19.80773455 -32.50033758 19.68517956 -29.3125 19.5625 C-28.20970703 19.52318359 -27.10691406 19.48386719 -25.97070312 19.44335938 C-24.3706543 19.38051758 -24.3706543 19.38051758 -22.73828125 19.31640625 C-21.26935425 19.26141968 -21.26935425 19.26141968 -19.77075195 19.20532227 C-17.10276985 19.0076156 -14.61525421 18.54448018 -12 18 C-9.89676466 17.9340265 -7.79164276 17.91437755 -5.6875 17.9375 C-3.810625 17.958125 -1.93375 17.97875 0 18 C0 12.06 0 6.12 0 0 Z " fill="#BD723E" transform="translate(687,547)"/>
<path d="M0 0 C13.86 0 27.72 0 42 0 C41.67 0.99 41.34 1.98 41 3 C40.505 2.505 40.505 2.505 40 2 C37.11747355 1.83976438 34.25621473 1.74045971 31.37109375 1.68359375 C30.07474754 1.6524221 30.07474754 1.6524221 28.75221252 1.62062073 C25.98072555 1.55502886 23.20914079 1.49619582 20.4375 1.4375 C18.56314077 1.39432392 16.68879157 1.35070994 14.81445312 1.30664062 C10.20973664 1.19933773 5.60492142 1.09809785 1 1 C1.09087891 2.04865234 1.18175781 3.09730469 1.27539062 4.17773438 C1.61427603 8.0986681 1.94865835 12.01997545 2.28173828 15.94140625 C2.42603314 17.63291641 2.57152046 19.32432531 2.71826172 21.015625 C2.9299596 23.45807127 3.13725048 25.90085938 3.34375 28.34375 C3.40937134 29.08991577 3.47499268 29.83608154 3.54260254 30.6048584 C3.94426949 35.42082094 4.05730714 40.16709768 4 45 C0.88809507 41.88809507 0.88079768 38.65803686 0.68359375 34.39453125 C0.64169922 33.49154297 0.59980469 32.58855469 0.55664062 31.65820312 C0.51732422 30.71912109 0.47800781 29.78003906 0.4375 28.8125 C0.39431641 27.92369141 0.35113281 27.03488281 0.30664062 26.11914062 C-0.07865242 17.39194728 0 8.76293556 0 0 Z " fill="#2A0D02" transform="translate(452,447)"/>
<path d="M0 0 C0.66 0.33 1.32 0.66 2 1 C1.01 1.99 0.02 2.98 -1 4 C-0.505 4.99 -0.505 4.99 0 6 C-2.54065934 7.43930464 -5.08248022 8.87648839 -7.625 10.3125 C-8.33785156 10.71662109 -9.05070313 11.12074219 -9.78515625 11.53710938 C-11.85077236 12.70257167 -13.9237913 13.85353616 -16 15 C-17.10085938 15.61230469 -18.20171875 16.22460938 -19.3359375 16.85546875 C-22 18 -22 18 -25 17 C-27.25752069 17.79171517 -27.25752069 17.79171517 -29.5625 19 C-31.94140625 20.1875 -31.94140625 20.1875 -34 21 C-34.66 20.67 -35.32 20.34 -36 20 C-35.34 18.68 -34.68 17.36 -34 16 C-33.67 16.66 -33.34 17.32 -33 18 C-31.53708696 17.4070085 -30.07978487 16.80016177 -28.625 16.1875 C-27.81289063 15.85105469 -27.00078125 15.51460937 -26.1640625 15.16796875 C-23.69852542 14.05560918 -23.69852542 14.05560918 -22 11 C-21.34 11.268125 -20.68 11.53625 -20 11.8125 C-15.38001265 12.10124921 -12.68934197 9.55704393 -9 7 C-8.0925 6.484375 -7.185 5.96875 -6.25 5.4375 C-3.8126052 3.88027555 -1.96608776 2.11172389 0 0 Z " fill="#141414" transform="translate(648,729)"/>
<path d="M0 0 C2.21498524 4.2823048 3.1378248 7.72126947 3.31640625 12.54296875 C3.35830078 13.61611328 3.40019531 14.68925781 3.44335938 15.79492188 C3.48267578 16.91447266 3.52199219 18.03402344 3.5625 19.1875 C3.60568359 20.31865234 3.64886719 21.44980469 3.69335938 22.61523438 C3.79949099 25.41003354 3.90154385 28.20492162 4 31 C5.18078125 30.97679687 6.3615625 30.95359375 7.578125 30.9296875 C9.13541033 30.91092503 10.69270252 30.89272534 12.25 30.875 C13.02730469 30.85824219 13.80460938 30.84148438 14.60546875 30.82421875 C21.72431144 30.76337394 21.72431144 30.76337394 25 33 C25 33.33 25 33.66 25 34 C21.35418313 34.02887512 17.70839537 34.04675585 14.0625 34.0625 C12.50112305 34.07506836 12.50112305 34.07506836 10.90820312 34.08789062 C9.42416992 34.09272461 9.42416992 34.09272461 7.91015625 34.09765625 C6.53549194 34.10551147 6.53549194 34.10551147 5.13305664 34.11352539 C3 34 3 34 2 33 C1.77132905 31.24410026 1.60473344 29.48003643 1.46484375 27.71484375 C1.33432617 26.08192383 1.33432617 26.08192383 1.20117188 24.41601562 C1.11416016 23.26810547 1.02714844 22.12019531 0.9375 20.9375 C0.80118164 19.25624023 0.80118164 19.25624023 0.66210938 17.54101562 C0.20394788 11.67448153 -0.10802947 5.88400499 0 0 Z " fill="#280D03" transform="translate(662,512)"/>
<path d="M0 0 C5.25105442 -0.02464928 10.50207545 -0.04283568 15.75317383 -0.05493164 C17.54094021 -0.05997218 19.32870245 -0.06680454 21.11645508 -0.07543945 C23.68051168 -0.0875173 26.24451397 -0.09323094 28.80859375 -0.09765625 C29.6127623 -0.10281754 30.41693085 -0.10797882 31.24546814 -0.11329651 C33.16401715 -0.11349215 35.08245368 -0.06201983 37 0 C38 1 38 1 38.09765625 3.06640625 C38.08605469 3.89011719 38.07445312 4.71382813 38.0625 5.5625 C38.05347656 6.38878906 38.04445313 7.21507812 38.03515625 8.06640625 C38.02355469 8.70449219 38.01195312 9.34257812 38 10 C37.34 9.34 36.68 8.68 36 8 C36 6.35 36 4.7 36 3 C24.45 2.67 12.9 2.34 1 2 C1 6.62 1 11.24 1 16 C0.67 16 0.34 16 0 16 C0 10.72 0 5.44 0 0 Z " fill="#B86F3C" transform="translate(619,450)"/>
<path d="M0 0 C4.65464689 0.11154927 8.05983549 0.3918008 12.03125 2.9609375 C14.79628772 7.22919017 14.66591607 10.64751799 14.5 15.625 C14.50257813 16.48351562 14.50515625 17.34203125 14.5078125 18.2265625 C14.40998592 24.48746351 14.40998592 24.48746351 12.61206055 26.73510742 C10.5025665 28.39030789 8.96548655 28.4952546 6.3125 28.6875 C5.10013672 28.78611328 5.10013672 28.78611328 3.86328125 28.88671875 C2.94095703 28.94279297 2.94095703 28.94279297 2 29 C0.78174143 23.0827441 0.66352622 17.14248484 0.4375 11.125 C0.39431641 10.05507813 0.35113281 8.98515625 0.30664062 7.8828125 C0.20107183 5.25532246 0.09896209 2.62774578 0 0 Z M2 2 C1.94578777 5.04190863 1.90622452 8.08283999 1.875 11.125 C1.85824219 11.9809375 1.84148437 12.836875 1.82421875 13.71875 C1.78693319 18.56587293 2.10419357 22.44707905 4 27 C7.96 26.505 7.96 26.505 12 26 C13.15243755 22.54268736 13.16824837 19.76740787 13.1875 16.125 C13.20876953 14.30355469 13.20876953 14.30355469 13.23046875 12.4453125 C13.0085708 9.12812621 12.51384229 6.93642458 11 4 C8.00730072 1.83287294 5.60149716 1.93451823 2 2 Z " fill="#300E02" transform="translate(387,469)"/>
<path d="M0 0 C0.33 0 0.66 0 1 0 C1.33808357 3.37454164 1.66961318 6.74969681 2 10.125 C2.09539063 11.07632813 2.19078125 12.02765625 2.2890625 13.0078125 C2.37929688 13.9359375 2.46953125 14.8640625 2.5625 15.8203125 C2.68818359 17.09285889 2.68818359 17.09285889 2.81640625 18.39111328 C3.01789668 21.25431374 3 24.12971861 3 27 C-5.91 27 -14.82 27 -24 27 C-24.33 27.99 -24.66 28.98 -25 30 C-25.66 30 -26.32 30 -27 30 C-27 28.02 -27 26.04 -27 24 C-26.67 24.66 -26.34 25.32 -26 26 C-25.01 25.67 -24.02 25.34 -23 25 C-21.22927147 24.78542501 -19.45336966 24.61215771 -17.67578125 24.46484375 C-16.74934814 24.38613037 -15.82291504 24.30741699 -14.8684082 24.22631836 C-13.6949585 24.1310083 -12.52150879 24.03569824 -11.3125 23.9375 C-7.579375 23.628125 -3.84625 23.31875 0 23 C0 15.41 0 7.82 0 0 Z " fill="#438C54" transform="translate(549,536)"/>
<path d="M0 0 C0.66 0 1.32 0 2 0 C2.04898438 0.86882813 2.09796875 1.73765625 2.1484375 2.6328125 C2.22320313 3.78523437 2.29796875 4.93765625 2.375 6.125 C2.47941406 7.83042969 2.47941406 7.83042969 2.5859375 9.5703125 C2.86086261 13.02673145 2.86086261 13.02673145 4.2265625 16.1796875 C5 19 5 19 3.93017578 21.13012695 C1.27348761 23.70381462 -0.44348531 23.59046312 -4.109375 23.73828125 C-5.36169922 23.79322754 -6.61402344 23.84817383 -7.90429688 23.90478516 C-9.26945199 23.93976695 -10.63469574 23.97142555 -12 24 C-12.68940674 24.0168988 -13.37881348 24.03379761 -14.08911133 24.0512085 C-18.40822649 24.14900777 -22.72524966 24.18578608 -27.04541016 24.18530273 C-29.28956765 24.18753944 -31.53326945 24.20592897 -33.77734375 24.22460938 C-35.21093584 24.22753552 -36.64453023 24.22952551 -38.078125 24.23046875 C-39.36106445 24.23457764 -40.64400391 24.23868652 -41.96582031 24.24291992 C-45 24 -45 24 -47 22 C-46.11441406 22.00523682 -45.22882812 22.01047363 -44.31640625 22.01586914 C-21.63853286 22.17585946 -21.63853286 22.17585946 1 21 C0.505 10.605 0.505 10.605 0 0 Z " fill="#210701" transform="translate(687,546)"/>
<path d="M0 0 C2.31 0 4.62 0 7 0 C6.67 0.66 6.34 1.32 6 2 C5.01 2.33 4.02 2.66 3 3 C2.97296619 4.93742341 2.95358875 6.87495479 2.9375 8.8125 C2.92589844 9.89144531 2.91429687 10.97039063 2.90234375 12.08203125 C2.86375234 15.06512169 2.86375234 15.06512169 4 18 C4.0833804 20.13794525 4.10733747 22.27842009 4.09765625 24.41796875 C4.09443359 25.67158203 4.09121094 26.92519531 4.08789062 28.21679688 C4.07951172 29.52712891 4.07113281 30.83746094 4.0625 32.1875 C4.05748317 33.52278481 4.05292059 34.85807141 4.04882812 36.19335938 C4.03702695 39.46228473 4.02056297 42.73111991 4 46 C3.67 46 3.34 46 3 46 C2.5672713 41.05661173 2.14025581 36.11277326 1.71826172 31.16845703 C1.57427898 29.49059109 1.4288037 27.81285246 1.28173828 26.13525391 C0.51735566 17.40465244 -0.21442731 8.77365066 0 0 Z " fill="#1E0700" transform="translate(391,518)"/>
<path d="M0 0 C10.89 0 21.78 0 33 0 C34.88343932 3.76687864 35.22057835 5.02958963 35 9 C33.66666667 7 32.33333333 5 31 3 C27.89786275 2.48779459 27.89786275 2.48779459 24.2421875 2.48828125 C23.57913605 2.47033005 22.91608459 2.45237885 22.23294067 2.43388367 C20.11369197 2.37967076 17.99466975 2.34585229 15.875 2.3125 C14.43877048 2.27933633 13.0025709 2.24484755 11.56640625 2.20898438 C8.04448871 2.12394036 4.52249241 2.05718127 1 2 C1 4.97 1 7.94 1 11 C0.67 11 0.34 11 0 11 C0 7.37 0 3.74 0 0 Z " fill="#459356" transform="translate(512,449)"/>
<path d="M0 0 C2.44664173 2.44664173 2.347875 3.41051785 2.6328125 6.7890625 C2.71660156 7.73007812 2.80039062 8.67109375 2.88671875 9.640625 C2.96535156 10.62546875 3.04398437 11.6103125 3.125 12.625 C3.21136719 13.61757813 3.29773438 14.61015625 3.38671875 15.6328125 C3.5991844 18.08797111 3.80325544 20.54353974 4 23 C10.71102718 25.4242477 17.35674843 25.43957934 24.4375 25.625 C25.64599609 25.66367187 26.85449219 25.70234375 28.09960938 25.7421875 C31.06625817 25.83599458 34.03290836 25.92169246 37 26 C37 26.33 37 26.66 37 27 C32.67671196 27.0744013 28.35376745 27.12871968 24.0300293 27.16479492 C22.56056218 27.17984066 21.09113966 27.20028238 19.62182617 27.22631836 C17.5042823 27.26288955 15.38733435 27.27976801 13.26953125 27.29296875 C11.99698486 27.3086792 10.72443848 27.32438965 9.41333008 27.34057617 C5.69177172 26.96924552 3.81445011 26.46198627 1 24 C0.34057617 21.45629883 0.34057617 21.45629883 0.29296875 18.45703125 C0.24946289 16.84731445 0.24946289 16.84731445 0.20507812 15.20507812 C0.19927734 14.08552734 0.19347656 12.96597656 0.1875 11.8125 C0.16236328 10.68134766 0.13722656 9.55019531 0.11132812 8.38476562 C0.05235616 5.5894947 0.01614967 2.79579325 0 0 Z " fill="#B9703D" transform="translate(407,550)"/>
<path d="M0 0 C0.33 0 0.66 0 1 0 C1.4327287 4.94338827 1.85974419 9.88722674 2.28173828 14.83154297 C2.42572102 16.50940891 2.5711963 18.18714754 2.71826172 19.86474609 C3.48264434 28.59534756 4.21442731 37.22634934 4 46 C2.35 46 0.7 46 -1 46 C0.98 45.505 0.98 45.505 3 45 C2.690625 43.865625 2.38125 42.73125 2.0625 41.5625 C-0.44580708 32.36537404 -0.12530623 22.88259052 -0.0625 13.4375 C-0.05798828 12.14263672 -0.05347656 10.84777344 -0.04882812 9.51367188 C-0.03712601 6.342399 -0.02073113 3.17122454 0 0 Z " fill="#B06936" transform="translate(391,528)"/>
<path d="M0 0 C2.69009645 4.03514467 2.3314193 7.07889232 2.3125 11.8125 C2.32861328 12.60720703 2.34472656 13.40191406 2.36132812 14.22070312 C2.36673083 20.75256782 0.98997454 24.91526477 -3.625 29.75 C-7.30807851 32.64251873 -11.45482881 33.32327451 -16 34 C-15.67 33.34 -15.34 32.68 -15 32 C-13.68 32 -12.36 32 -11 32 C-11 31.34 -11 30.68 -11 30 C-10.01 30 -9.02 30 -8 30 C-8 29.34 -8 28.68 -8 28 C-7.030625 27.360625 -6.06125 26.72125 -5.0625 26.0625 C-1.75744775 24.28938993 -1.75744775 24.28938993 -1 21 C-0.85284801 19.37432921 -0.75278133 17.74413143 -0.68359375 16.11328125 C-0.64169922 15.17548828 -0.59980469 14.23769531 -0.55664062 13.27148438 C-0.51732422 12.29501953 -0.47800781 11.31855469 -0.4375 10.3125 C-0.39431641 9.32443359 -0.35113281 8.33636719 -0.30664062 7.31835938 C-0.20058346 4.87904454 -0.09852286 2.43962887 0 0 Z " fill="#D58145" transform="translate(436,475)"/>
<path d="M0 0 C0.33 0.66 0.66 1.32 1 2 C3.32854865 2.36526253 5.66298962 2.69350684 8 3 C11.39779715 3.78410703 13.35243571 4.25796751 15.66015625 6.90234375 C17.65432366 11.51276578 17.31746615 15.85045917 17.1875 20.8125 C17.16719727 22.28106445 17.16719727 22.28106445 17.14648438 23.77929688 C17.11125312 26.18676625 17.06199265 28.59309564 17 31 C16.67 31 16.34 31 16 31 C15.96261719 30.09378906 15.92523438 29.18757812 15.88671875 28.25390625 C15.56252292 17.73648868 15.56252292 17.73648868 12 8 C8.21476632 5.5408036 4.40213439 5.44021344 0 5 C0 3.35 0 1.7 0 0 Z " fill="#BC703D" transform="translate(390,513)"/>
<path d="M0 0 C16.335 0.495 16.335 0.495 33 1 C33 1.66 33 2.32 33 3 C26.67410373 4.13955862 20.47721662 4.1142637 14.0625 4.0625 C12.46438477 4.05573242 12.46438477 4.05573242 10.83398438 4.04882812 C8.22259709 4.03711787 5.61132876 4.02071724 3 4 C3 3.34 3 2.68 3 2 C2.01 1.67 1.02 1.34 0 1 C0 0.67 0 0.34 0 0 Z " fill="#311004" transform="translate(411,576)"/>
<path d="M0 0 C0.33 0 0.66 0 1 0 C2.30064871 13.69659193 3.33658532 27.23740043 3 41 C-1.96738505 33.54892243 -0.12012193 21.98282969 -0.0625 13.375 C-0.05798828 12.08464844 -0.05347656 10.79429687 -0.04882812 9.46484375 C-0.03714295 6.30984625 -0.02076044 3.15494863 0 0 Z " fill="#321407" transform="translate(459,534)"/>
<path d="M0 0 C0.66 0.33 1.32 0.66 2 1 C2.54659849 3.61152612 2.94720385 6.10733808 3.25 8.75 C3.33862305 9.5119165 3.42724609 10.27383301 3.51855469 11.05883789 C4.19136167 17.84865262 3.90048146 24.40110603 2 31 C1.34 31.66 0.68 32.32 0 33 C-0.33 32.01 -0.66 31.02 -1 30 C-0.67 29.34 -0.34 28.68 0 28 C0.08543895 25.89471067 0.10714725 23.78668843 0.09765625 21.6796875 C0.09443359 20.42285156 0.09121094 19.16601562 0.08789062 17.87109375 C0.07951172 16.55238281 0.07113281 15.23367188 0.0625 13.875 C0.05748489 12.53515789 0.05292201 11.195314 0.04882812 9.85546875 C0.03701086 6.57026794 0.02053617 3.28515603 0 0 Z " fill="#1B0400" transform="translate(437,468)"/>
<path d="M0 0 C0.33 0 0.66 0 1 0 C2.32129837 12.70695458 3.32962491 25.2178785 3 38 C2.67 38 2.34 38 2 38 C0.2481086 29.33732165 -0.25476422 21.07396723 -0.125 12.25 C-0.11597656 11.0640625 -0.10695313 9.878125 -0.09765625 8.65625 C-0.07438497 5.77061093 -0.04169684 2.88542145 0 0 Z " fill="#3E1C0B" transform="translate(621,496)"/>
<path d="M0 0 C0.33 0.33 0.66 0.66 1 1 C3.80927959 1.24350096 6.61734162 1.38391001 9.43359375 1.5234375 C10.28050781 1.68070312 11.12742187 1.83796875 12 2 C12.66 2.99 13.32 3.98 14 5 C12.92105469 4.87882812 11.84210938 4.75765625 10.73046875 4.6328125 C-0.50825248 3.37506775 -11.75204902 2.17218114 -23 1 C-23 0.67 -23 0.34 -23 0 C-15.24838993 -1.20283605 -7.78655132 -0.9626231 0 0 Z " fill="#110000" transform="translate(400,445)"/>
<path d="M0 0 C11.25 0 11.25 0 15 3 C12.20215289 3 10.0209322 2.62804225 7.3125 2 C6.50425781 1.814375 5.69601562 1.62875 4.86328125 1.4375 C4.24839844 1.293125 3.63351562 1.14875 3 1 C3.165 1.9075 3.33 2.815 3.5 3.75 C4.28873311 9.13782475 4.08025923 14.56912556 4 20 C3.34 20 2.68 20 2 20 C1.34 13.4 0.68 6.8 0 0 Z " fill="#CA783E" transform="translate(384,468)"/>
<path d="M0 0 C10.23 0 20.46 0 31 0 C31 3.96 31 7.92 31 12 C30.67 12 30.34 12 30 12 C30 8.7 30 5.4 30 2 C29.01 2 28.02 2 27 2 C26.67 2.66 26.34 3.32 26 4 C26 3.34 26 2.68 26 2 C18.08 2 10.16 2 2 2 C1.67 3.98 1.34 5.96 1 8 C0.67 8 0.34 8 0 8 C0 5.36 0 2.72 0 0 Z " fill="#449254" transform="translate(569,450)"/>
<path d="M0 0 C-0.99 0.495 -0.99 0.495 -2 1 C-2 1.66 -2 2.32 -2 3 C-6.72545113 5.36272556 -11.77175061 5.879704 -17 6 C-17.66 5.67 -18.32 5.34 -19 5 C-19 4.34 -19 3.68 -19 3 C-16.69 3.33 -14.38 3.66 -12 4 C-11.67 3.34 -11.34 2.68 -11 2 C-10.34 2 -9.68 2 -9 2 C-9 1.34 -9 0.68 -9 0 C-5.52176885 -1.15941038 -3.54104422 -0.70820884 0 0 Z " fill="#0D0D0D" transform="translate(607,754)"/>
<path d="M0 0 C0.99 0.495 0.99 0.495 2 1 C2.37890625 2.99609375 2.37890625 2.99609375 2.5625 5.4375 C2.8061175 8.84628205 2.8061175 8.84628205 4 12 C4.08471364 13.81341842 4.10721083 15.62994161 4.09765625 17.4453125 C4.09443359 18.52167969 4.09121094 19.59804688 4.08789062 20.70703125 C4.07951172 21.83496094 4.07113281 22.96289062 4.0625 24.125 C4.05798828 25.26066406 4.05347656 26.39632812 4.04882812 27.56640625 C4.03701615 30.37765638 4.02054507 33.1888023 4 36 C3.67 36 3.34 36 3 36 C2.01 24.12 1.02 12.24 0 0 Z " fill="#250A01" transform="translate(441,524)"/>
<path d="M0 0 C3.4165052 -0.08724706 6.83272313 -0.14047325 10.25 -0.1875 C11.70212891 -0.22520508 11.70212891 -0.22520508 13.18359375 -0.26367188 C14.58544922 -0.27817383 14.58544922 -0.27817383 16.015625 -0.29296875 C16.87446289 -0.3086792 17.73330078 -0.32438965 18.61816406 -0.34057617 C21 0 21 0 25 3 C17.08 3 9.16 3 1 3 C0.67 2.01 0.34 1.02 0 0 Z " fill="#311508" transform="translate(355,570)"/>
<path d="M0 0 C-4.29 4.29 -8.58 8.58 -13 13 C-13.33 12.34 -13.66 11.68 -14 11 C-14.66 10.67 -15.32 10.34 -16 10 C-15.01 10 -14.02 10 -13 10 C-13 9.01 -13 8.02 -13 7 C-12.34 6.34 -11.68 5.68 -11 5 C-10.01 5 -9.02 5 -8 5 C-7.9175 4.38125 -7.835 3.7625 -7.75 3.125 C-7 1 -7 1 -5.125 -0.3125 C-3 -1 -3 -1 0 0 Z " fill="#0B0B0B" transform="translate(703,690)"/>
<path d="M0 0 C0.33 0 0.66 0 1 0 C1.05791844 3.12492251 1.09356746 6.24970766 1.125 9.375 C1.14175781 10.26445312 1.15851563 11.15390625 1.17578125 12.0703125 C1.18222656 12.92109375 1.18867188 13.771875 1.1953125 14.6484375 C1.20578613 15.43395996 1.21625977 16.21948242 1.22705078 17.02880859 C1 19 1 19 -1 21 C-3.8203125 21.4140625 -3.8203125 21.4140625 -7.125 21.625 C-8.22070312 21.69976562 -9.31640625 21.77453125 -10.4453125 21.8515625 C-11.28835938 21.90054687 -12.13140625 21.94953125 -13 22 C-13 19.36 -13 16.72 -13 14 C-12.67 14 -12.34 14 -12 14 C-12 15.98 -12 17.96 -12 20 C-10.53984709 19.71758359 -9.08190207 19.42373386 -7.625 19.125 C-6.40683594 18.88136719 -6.40683594 18.88136719 -5.1640625 18.6328125 C-2.81326077 18.13341068 -2.81326077 18.13341068 -1 16 C-0.6936141 13.26565038 -0.4886664 10.61720179 -0.375 7.875 C-0.31699219 6.74384766 -0.31699219 6.74384766 -0.2578125 5.58984375 C-0.16348969 3.72696816 -0.08065338 1.86351745 0 0 Z " fill="#AF6837" transform="translate(401,478)"/>
<path d="M0 0 C0.33 0 0.66 0 1 0 C1.19592461 3.31205884 1.38032746 6.62465854 1.5625 9.9375 C1.61857422 10.88302734 1.67464844 11.82855469 1.73242188 12.80273438 C1.78076172 13.70185547 1.82910156 14.60097656 1.87890625 15.52734375 C1.9260376 16.35999756 1.97316895 17.19265137 2.02172852 18.05053711 C2 20 2 20 1 21 C-1.18639453 21.07258946 -3.37500389 21.08373783 -5.5625 21.0625 C-7.35880859 21.04896484 -7.35880859 21.04896484 -9.19140625 21.03515625 C-10.11824219 21.02355469 -11.04507813 21.01195312 -12 21 C-9 19 -9 19 0 19 C0 12.73 0 6.46 0 0 Z " fill="#A06032" transform="translate(687,547)"/>
<path d="M0 0 C0.33 0 0.66 0 1 0 C1.02683987 2.97922593 1.04676037 5.95821295 1.0625 8.9375 C1.07087891 9.78763672 1.07925781 10.63777344 1.08789062 11.51367188 C1.09111328 12.32255859 1.09433594 13.13144531 1.09765625 13.96484375 C1.10289307 14.7137085 1.10812988 15.46257324 1.11352539 16.23413086 C1 18 1 18 0 19 C-2.18292774 19.23481693 -4.37203174 19.41363323 -6.5625 19.5625 C-8.35880859 19.68818359 -8.35880859 19.68818359 -10.19140625 19.81640625 C-11.11824219 19.87699219 -12.04507812 19.93757812 -13 20 C-8.9687339 16.6133733 -6.14317962 16.4285983 -1 16 C-0.67 10.72 -0.34 5.44 0 0 Z " fill="#4D240F" transform="translate(501,554)"/>
<path d="M0 0 C0.66 0 1.32 0 2 0 C2 6.27 2 12.54 2 19 C1.34 19.33 0.68 19.66 0 20 C-0.94870788 13.14011227 -0.94870788 6.85988773 0 0 Z " fill="#DC8240" transform="translate(389,518)"/>
<path d="M0 0 C0.33 0 0.66 0 1 0 C1.33 2.97 1.66 5.94 2 9 C2.74765625 8.97679687 3.4953125 8.95359375 4.265625 8.9296875 C5.25046875 8.91164063 6.2353125 8.89359375 7.25 8.875 C8.22453125 8.85179687 9.1990625 8.82859375 10.203125 8.8046875 C13 9 13 9 17 11 C11.39 11 5.78 11 0 11 C0 7.37 0 3.74 0 0 Z " fill="#D58246" transform="translate(627,556)"/>
<path d="M0 0 C6.93 0 13.86 0 21 0 C21 3.96 21 7.92 21 12 C20.67 12 20.34 12 20 12 C19.80083984 11.04287109 19.80083984 11.04287109 19.59765625 10.06640625 C19.33275391 8.82697266 19.33275391 8.82697266 19.0625 7.5625 C18.88847656 6.73878906 18.71445312 5.91507813 18.53515625 5.06640625 C18.19247006 3.02338796 18.19247006 3.02338796 17 2 C14.02204553 1.92692136 11.05618803 2.00381896 8.078125 2.0625 C5.24144381 2.00490241 2.75313265 1.65259441 0 1 C0 0.67 0 0.34 0 0 Z " fill="#DF8440" transform="translate(666,547)"/>
<path d="M0 0 C2.31 0 4.62 0 7 0 C6.67 0.66 6.34 1.32 6 2 C5.01 2.33 4.02 2.66 3 3 C2.67 9.27 2.34 15.54 2 22 C1.67 22 1.34 22 1 22 C0.29223008 14.64424835 -0.14715692 7.3905476 0 0 Z " fill="#2D0E02" transform="translate(391,518)"/>
<path d="M0 0 C0.99 0.495 0.99 0.495 2 1 C1.67 1.66 1.34 2.32 1 3 C1.53367187 2.83371094 2.06734375 2.66742187 2.6171875 2.49609375 C6.49896039 1.68792136 10.37387034 2.03954371 14.3203125 2.16015625 C17.15419709 2.2882436 17.15419709 2.2882436 19 0 C20.32 0 21.64 0 23 0 C23 0.66 23 1.32 23 2 C18.26101734 4.45153075 13.87937667 4.23154206 8.6875 4.125 C7.85154297 4.11597656 7.01558594 4.10695313 6.15429688 4.09765625 C4.10274031 4.07420989 2.05133223 4.03834266 0 4 C0 2.68 0 1.36 0 0 Z " fill="#DD7930" transform="translate(464,570)"/>
<path d="M0 0 C3.13220429 2.5627126 4.04560617 5.10900977 5 9 C5.42424196 13.49350161 5.23277782 17.01289676 3 21 C2.86722656 19.90300781 2.73445313 18.80601562 2.59765625 17.67578125 C2.41937015 16.22134199 2.2409792 14.76691558 2.0625 13.3125 C1.97548828 12.59126953 1.88847656 11.87003906 1.79882812 11.12695312 C1.33686195 7.37989416 0.80832321 3.69207089 0 0 Z " fill="#C0733A" transform="translate(437,519)"/>
<path d="M0 0 C8.4342927 -0.45636453 15.85956596 0.82576642 24 3 C21 5 21 5 18.4375 4.625 C17.633125 4.41875 16.82875 4.2125 16 4 C15.34 4 14.68 4 14 4 C14 3.34 14 2.68 14 2 C13.11248047 2.01740234 13.11248047 2.01740234 12.20703125 2.03515625 C7.99768215 2.08322386 4.1077667 2.06006883 0 1 C0 0.67 0 0.34 0 0 Z " fill="#E78439" transform="translate(392,449)"/>
<path d="M0 0 C-1.72973114 1.72973114 -4.02516963 1.17208117 -6.375 1.1875 C-7.35210938 1.20167969 -8.32921875 1.21585938 -9.3359375 1.23046875 C-12 1 -12 1 -15 -1 C-9.90848331 -2.62928534 -4.61112076 -2.95111729 0 0 Z " fill="#0F0F0F" transform="translate(556,769)"/>
<path d="M0 0 C-3.83704776 2.55803184 -7.75712791 4.34505724 -12.4375 3.625 C-12.953125 3.41875 -13.46875 3.2125 -14 3 C-14 2.34 -14 1.68 -14 1 C-4.58997722 -1.48063781 -4.58997722 -1.48063781 0 0 Z " fill="#101010" transform="translate(590,760)"/>
<path d="M0 0 C0.66 0 1.32 0 2 0 C2 0.66 2 1.32 2 2 C2.66 2.33 3.32 2.66 4 3 C4 3.99 4 4.98 4 6 C-0.51617599 6.07654536 -4.59085217 6.10228696 -9 5 C-5.76908333 3.21742529 -3.67481998 3 0 3 C0 2.01 0 1.02 0 0 Z " fill="#141414" transform="translate(567,761)"/>
<path d="M0 0 C0.99 0.66 1.98 1.32 3 2 C3 2.66 3 3.32 3 4 C2.01 4.495 2.01 4.495 1 5 C1.66 5.66 2.32 6.32 3 7 C0.03 9.475 0.03 9.475 -3 12 C-3.33 11.01 -3.66 10.02 -4 9 C-3.34 8.67 -2.68 8.34 -2 8 C-1.61866701 6.0085944 -1.28674418 4.00720923 -1 2 C-0.67 1.34 -0.34 0.68 0 0 Z " fill="#0F0F0F" transform="translate(710,672)"/>
<path d="M0 0 C4.62 0 9.24 0 14 0 C15.88343932 3.76687864 16.22057835 5.02958963 16 9 C14.66666667 7 13.33333333 5 12 3 C9.12240932 2.19663887 9.12240932 2.19663887 5.875 1.8125 C4.23144531 1.57466797 4.23144531 1.57466797 2.5546875 1.33203125 C1.29011719 1.16767578 1.29011719 1.16767578 0 1 C0 0.67 0 0.34 0 0 Z " fill="#418652" transform="translate(531,449)"/>
<path d="M0 0 C1.65 0.33 3.3 0.66 5 1 C1.88983545 4.28788824 -1.01618925 6.83735988 -5 9 C-4.1875 6.0625 -4.1875 6.0625 -3 3 C-2.01 2.67 -1.02 2.34 0 2 C0 1.34 0 0.68 0 0 Z " fill="#141414" transform="translate(669,715)"/>
<path d="M0 0 C1.485 0.99 1.485 0.99 3 2 C3 2.99 3 3.98 3 5 C5.97 5.33 8.94 5.66 12 6 C11.67 6.66 11.34 7.32 11 8 C5.69072575 8.43518641 5.69072575 8.43518641 3 8 C0.54678356 5.16346849 0 3.74876504 0 0 Z " fill="#3F824F" transform="translate(571,555)"/>
<path d="M0 0 C12.66970387 5.0022779 12.66970387 5.0022779 18 9 C15 10 15 10 12.6953125 8.85546875 C11.84710938 8.30503906 10.99890625 7.75460937 10.125 7.1875 C6.82097702 5.06059835 3.69318211 3.35681422 0 2 C0 1.34 0 0.68 0 0 Z " fill="#C0723D" transform="translate(419,509)"/>
<path d="M0 0 C0.33 0.99 0.66 1.98 1 3 C-3.38512875 6.31558515 -6.37458159 7.54996653 -12 8 C-11.67 7.34 -11.34 6.68 -11 6 C-9.68 6 -8.36 6 -7 6 C-7 5.34 -7 4.68 -7 4 C-6.01 4 -5.02 4 -4 4 C-4 3.34 -4 2.68 -4 2 C-2.68 1.34 -1.36 0.68 0 0 Z " fill="#CC7A40" transform="translate(432,501)"/>
<path d="M0 0 C0.66 0.33 1.32 0.66 2 1 C0.71480435 3.86697492 -0.57129254 5.97607712 -3 8 C-3.66 8 -4.32 8 -5 8 C-5.99 8.495 -5.99 8.495 -7 9 C-7.33 7.35 -7.66 5.7 -8 4 C-6.68 4 -5.36 4 -4 4 C-1.74934898 2.08333079 -1.74934898 2.08333079 0 0 Z " fill="#111111" transform="translate(722,662)"/>
<path d="M0 0 C2.95664482 5.72098754 3.10755105 10.65448788 3 17 C0.86313001 12.72626002 -0.11896237 10.23076378 -0.0625 5.375 C-0.05347656 4.37210938 -0.04445313 3.36921875 -0.03515625 2.3359375 C-0.02355469 1.56507813 -0.01195312 0.79421875 0 0 Z " fill="#DD833E" transform="translate(407,539)"/>
<path d="M0 0 C2.97 0.495 2.97 0.495 6 1 C6 1.66 6 2.32 6 3 C6.99 2.67 7.98 2.34 9 2 C9.99 3.485 9.99 3.485 11 5 C8.04452467 5.84442152 6.2614612 6.0653653 3.25 5.3125 C1 4 1 4 0.1875 1.875 C0.125625 1.25625 0.06375 0.6375 0 0 Z " fill="#111111" transform="translate(425,754)"/>
<path d="M0 0 C0.66 0.66 1.32 1.32 2 2 C0.35 3.32 -1.3 4.64 -3 6 C-2.67 6.66 -2.34 7.32 -2 8 C-3.65 8.66 -5.3 9.32 -7 10 C-7.66 9.34 -8.32 8.68 -9 8 C-7.8803014 6.99406757 -6.7540588 5.9954151 -5.625 5 C-4.68527344 4.1646875 -4.68527344 4.1646875 -3.7265625 3.3125 C-2 2 -2 2 0 2 C0 1.34 0 0.68 0 0 Z " fill="#121212" transform="translate(661,720)"/>
<path d="M0 0 C0.33 1.32 0.66 2.64 1 4 C1.66 4 2.32 4 3 4 C3.33 5.32 3.66 6.64 4 8 C6.31 8.33 8.62 8.66 11 9 C11 9.33 11 9.66 11 10 C9.54207116 10.05399736 8.08357288 10.09279177 6.625 10.125 C5.81289063 10.14820313 5.00078125 10.17140625 4.1640625 10.1953125 C2 10 2 10 0 8 C-0.26991906 5.31160615 -0.08737357 2.70858064 0 0 Z " fill="#B16D3D" transform="translate(353,560)"/>
<path d="M0 0 C0.66 0 1.32 0 2 0 C4.09230769 4.43076923 4.09230769 4.43076923 3.625 7.3125 C3.41875 7.869375 3.2125 8.42625 3 9 C1.68 8.67 0.36 8.34 -1 8 C-1.125 2.25 -1.125 2.25 0 0 Z " fill="#E78435" transform="translate(435,519)"/>
<path d="M0 0 C1.98 0.99 1.98 0.99 4 2 C4 8.27 4 14.54 4 21 C3.67 21 3.34 21 3 21 C2.92652344 19.48019531 2.92652344 19.48019531 2.8515625 17.9296875 C2.77647436 16.57810089 2.70092919 15.22653962 2.625 13.875 C2.5940625 13.20984375 2.563125 12.5446875 2.53125 11.859375 C2.28080367 7.60178738 1.52471803 3.97914217 0 0 Z " fill="#D88548" transform="translate(399,472)"/>
<path d="M0 0 C0.33 0.66 0.66 1.32 1 2 C3.3260857 2.38063221 5.66055264 2.71269945 8 3 C8.66 3.33 9.32 3.66 10 4 C10 4.66 10 5.32 10 6 C6.7 5.67 3.4 5.34 0 5 C0 3.35 0 1.7 0 0 Z " fill="#C56E2E" transform="translate(390,513)"/>
<path d="M0 0 C1.32 0.33 2.64 0.66 4 1 C4 1.66 4 2.32 4 3 C5.32 3.66 6.64 4.32 8 5 C8 6.98 8 8.96 8 11 C4.99587837 9.49793919 4.45358301 6.96530935 3 4 C2.03465478 2.64136599 1.04722851 1.29656863 0 0 Z " fill="#2A0C03" transform="translate(428,456)"/>
<path d="M0 0 C2.62561109 -0.08074203 5.24875676 -0.1403623 7.875 -0.1875 C8.99455078 -0.22520508 8.99455078 -0.22520508 10.13671875 -0.26367188 C12.3046875 -0.29296875 12.3046875 -0.29296875 16 0 C16.66 0.99 17.32 1.98 18 3 C12.06 2.34 6.12 1.68 0 1 C0 0.67 0 0.34 0 0 Z " fill="#361405" transform="translate(396,447)"/>
<path d="M0 0 C0.33 0 0.66 0 1 0 C1.05791844 3.12492251 1.09356746 6.24970766 1.125 9.375 C1.14175781 10.26445312 1.15851563 11.15390625 1.17578125 12.0703125 C1.18222656 12.92109375 1.18867188 13.771875 1.1953125 14.6484375 C1.20578613 15.43395996 1.21625977 16.21948242 1.22705078 17.02880859 C1 19 1 19 -1 21 C-1.33 20.01 -1.66 19.02 -2 18 C-1.67 17.34 -1.34 16.68 -1 16 C-0.7677354 13.28737884 -0.58063765 10.59226874 -0.4375 7.875 C-0.39431641 7.12089844 -0.35113281 6.36679687 -0.30664062 5.58984375 C-0.2005168 3.72678112 -0.09974999 1.86341476 0 0 Z " fill="#4B220D" transform="translate(438,480)"/>
<path d="M0 0 C0 0.66 0 1.32 0 2 C-0.66 2 -1.32 2 -2 2 C-2.28875 2.639375 -2.5775 3.27875 -2.875 3.9375 C-4 6 -4 6 -6 7 C-7.125 3.25 -7.125 3.25 -6 1 C-3.911361 0.32624548 -2.19636905 0 0 0 Z " fill="#1A1A1A" transform="translate(680,706)"/>
<path d="M0 0 C4.95 0 9.9 0 15 0 C15 0.33 15 0.66 15 1 C13.06685873 1.41659944 11.12819653 1.80764837 9.1875 2.1875 C8.10855469 2.40792969 7.02960937 2.62835937 5.91796875 2.85546875 C4.47357422 2.92701172 4.47357422 2.92701172 3 3 C2.01 2.01 1.02 1.02 0 0 Z " fill="#3C7B4B" transform="translate(590,562)"/>
<path d="M0 0 C0.66 0 1.32 0 2 0 C5.07692308 5.41538462 5.07692308 5.41538462 4.6875 8.375 C4.460625 8.91125 4.23375 9.4475 4 10 C3.34 8.35 2.68 6.7 2 5 C1.34 5 0.68 5 0 5 C0 3.35 0 1.7 0 0 Z " fill="#3D8A51" transform="translate(562,487)"/>
<path d="M0 0 C-2.5654594 2.5654594 -4.47686668 2.54046087 -8 3 C-8.33 2.01 -8.66 1.02 -9 0 C-5.52176885 -1.15941038 -3.54104422 -0.70820884 0 0 Z " fill="#141414" transform="translate(607,754)"/>
<path d="M0 0 C0.33 0.66 0.66 1.32 1 2 C1.66 2.33 2.32 2.66 3 3 C2.34 3.66 1.68 4.32 1 5 C1.99 6.485 1.99 6.485 3 8 C0.50638429 6.79618552 -1.68143083 5.54571278 -4 4 C-3 2 -3 2 0 0 Z " fill="#131313" transform="translate(357,712)"/>
<path d="M0 0 C0.556875 0.226875 1.11375 0.45375 1.6875 0.6875 C-3.45535714 5.11607143 -3.45535714 5.11607143 -7.3125 5.6875 C-7.3125 4.6975 -7.3125 3.7075 -7.3125 2.6875 C-3.28618421 -0.44407895 -3.28618421 -0.44407895 0 0 Z " fill="#0B0B0B" transform="translate(678.3125,711.3125)"/>
<path d="M0 0 C-1 3 -1 3 -2.875 4.25 C-5 5 -5 5 -8 4 C-4.5 0 -4.5 0 0 0 Z " fill="#0A0A0A" transform="translate(654,729)"/>
<path d="M0 0 C2 2 2 2 2 4 C-1.46153846 7 -1.46153846 7 -4 7 C-3.39816251 4.97954558 -2.72693904 2.97888961 -2 1 C-1.34 0.67 -0.68 0.34 0 0 Z " fill="#141414" transform="translate(333,688)"/>
<path d="M0 0 C0.66 1.32 1.32 2.64 2 4 C0.68 5.32 -0.64 6.64 -2 8 C-2.33 5.69 -2.66 3.38 -3 1 C-2.01 0.67 -1.02 0.34 0 0 Z " fill="#110F0F" transform="translate(726,655)"/>
<path d="M0 0 C1.45922693 0.11409593 2.91740598 0.24165544 4.375 0.375 C5.59316406 0.47941406 5.59316406 0.47941406 6.8359375 0.5859375 C9 1 9 1 11 3 C8.36 3.33 5.72 3.66 3 4 C3 3.34 3 2.68 3 2 C2.01 1.67 1.02 1.34 0 1 C0 0.67 0 0.34 0 0 Z " fill="#1F0600" transform="translate(411,576)"/>
<path d="M0 0 C1.32 0 2.64 0 4 0 C6 3 6 3 5.625 5.1875 C5.41875 5.785625 5.2125 6.38375 5 7 C3.29115995 5.37660195 1.62553283 3.70680947 0 2 C0 1.34 0 0.68 0 0 Z " fill="#D27C40" transform="translate(400,518)"/>
<path d="M0 0 C0.99 0.33 1.98 0.66 3 1 C3.33 3.31 3.66 5.62 4 8 C2 5 2 5 1 3 C0.34 4.32 -0.32 5.64 -1 7 C-1.04254356 5.00045254 -1.04080783 2.99958364 -1 1 C-0.67 0.67 -0.34 0.34 0 0 Z " fill="#307842" transform="translate(549,512)"/>
<path d="M0 0 C1.65 0 3.3 0 5 0 C5.33 0.99 5.66 1.98 6 3 C6.66 3 7.32 3 8 3 C7.67 3.99 7.34 4.98 7 6 C5.83054208 5.19152271 4.66449539 4.37810888 3.5 3.5625 C2.8503125 3.11003906 2.200625 2.65757812 1.53125 2.19140625 C1.0259375 1.79824219 0.520625 1.40507813 0 1 C0 0.67 0 0.34 0 0 Z " fill="#321205" transform="translate(431,514)"/>
<path d="M0 0 C0 0.99 0 1.98 0 3 C-3.0831351 1.80100302 -6.06279492 0.52299523 -9 -1 C-5.79937313 -2.60031344 -3.27728194 -1.03173691 0 0 Z " fill="#0E0E0E" transform="translate(391,738)"/>
<path d="M0 0 C1.32 0 2.64 0 4 0 C4.33 1.32 4.66 2.64 5 4 C2.69 3.34 0.38 2.68 -2 2 C-1.34 1.34 -0.68 0.68 0 0 Z " fill="#3F1205" transform="translate(422,508)"/>
<path d="M0 0 C0.33 0 0.66 0 1 0 C1 1.98 1 3.96 1 6 C-0.32 6.33 -1.64 6.66 -3 7 C-3.33 5.35 -3.66 3.7 -4 2 C-3.01 2.33 -2.02 2.66 -1 3 C-0.67 2.01 -0.34 1.02 0 0 Z " fill="#3D874B" transform="translate(571,496)"/>
</svg>
